{"title":"Hate Story 2 2014 Hindi 720p DvDRip x265 HEVC AC3 5.1....Hon3y","uid":10859957,"size":1611650713,"categoryP":"video","categoryS":"hd___movies","magnet":"?xt=urn:btih:ab9dda96b5051f7db82383f4e902434f31c36261&amp;dn=Hate+Story+2+2014+Hindi+720p+DvDRip+x265+HEVC+AC3+5.1....Hon3y&amp;tr=udp%3A%2F%2Ftracker.openbittorrent.com%3A80&amp;tr=udp%3A%2F%2Fopen.demonii.com%3A1337&amp;tr=udp%3A%2F%2Ftracker.coppersurfer.tk%3A6969&amp;tr=udp%3A%2F%2Fexodus.desync.com%3A6969","seeders":13,"leechers":5,"uploader":"honey8ee","files":3,"time":1408879727,"description":"www.imdb.com/title/tt3619772/\n\nSource                                   : DVD9 Thanks TNT\nComplete name                            : Hate Story 2 2014 Hindi 720p DvDRip x265 HEVC AC3 5.1....Hon3y.mkv\nFormat                                   : Matroska\nFormat version                           : Version 4 / Version 2\nFile size                                : 1.50 GiB\nDuration                                 : 2h 13mn\nOverall bit rate                         : 1 607 Kbps\n\nEncoded By Rana Aqib\n\n\n\nVideo\nID                                       : 1\nFormat                                   : V_MPEGH/ISO/HEVC\nCodec ID                                 : V_MPEGH/ISO/HEVC\nDuration                                 : 2h 13mn\nBit rate                                 : 1 127 Kbps\nWidth                                    : 1 280 pixels\nHeight                                   : 544 pixels\nDisplay aspect ratio                     : 2.35:1\nFrame rate                               : 29.970 fps\nBits/(Pixel*Frame)                       : 0.054\nStream size                              : 1.05 GiB (70%)\n\nAudio\nID                                       : 2\nFormat                                   : AC-3\nFormat/Info                              : Audio Coding 3\nMode extension                           : CM (complete main)\nCodec ID                                 : A_AC3\nDuration                                 : 2h 13mn\nBit rate mode                            : Constant\nBit rate                                 : 448 Kbps\nChannel(s)                               : 6 channels\nChannel positions                        : Front: L C R, Side: L R, LFE\nSampling rate                            : 48.0 KHz\nBit depth                                : 16 bits\nCompression mode                         : Lossy\nStream size                              : 428 MiB (28%)\n\nFor Screen Shots:\n &lt;a href=&quot;\nhttp://www.hon3yhd.com/index.php?page=torrent-details&amp;id=ab9dda96b5051f7db82383f4e902434f31c36261&quot; rel=&quot;nofollow&quot; target=&quot;_NEW&quot;&gt;\nhttp://www.hon3yhd.com/index.php?page=torrent-details&amp;id=ab9dda96b5051f7db82383f4e902434f31c36261&lt;/a&gt;","torrent":{"xt":"urn:btih:ab9dda96b5051f7db82383f4e902434f31c36261","amp;dn":"Hate+Story+2+2014+Hindi+720p+DvDRip+x265+HEVC+AC3+5.1....Hon3y","amp;tr":["udp%3A%2F%2Ftracker.openbittorrent.com%3A80","udp%3A%2F%2Fopen.demonii.com%3A1337","udp%3A%2F%2Ftracker.coppersurfer.tk%3A6969","udp%3A%2F%2Fexodus.desync.com%3A6969"],"infoHash":"ab9dda96b5051f7db82383f4e902434f31c36261","infoHashBuffer":{"type":"Buffer","data":[171,157,218,150,181,5,31,125,184,35,131,244,233,2,67,79,49,195,98,97]},"announce":[],"urlList":[]}}